<svg width="60" height="60" viewBox="0 0 60 60" fill="none" xmlns="http://www.w3.org/2000/svg">
<path d="M7.5 60C5.51088 60 3.60322 59.2098 2.1967 57.8033C0.790176 56.3968 0 54.4891 0 52.5V7.5C0 5.51088 0.790176 3.60322 2.1967 2.1967C3.60322 0.790176 5.51088 0 7.5 0L52.5 0C54.4891 0 56.3968 0.790176 57.8033 2.1967C59.2098 3.60322 60 5.51088 60 7.5V52.5C60 54.4891 59.2098 56.3968 57.8033 57.8033C56.3968 59.2098 54.4891 60 52.5 60H7.5ZM31.875 43.125V21.4012L39.9225 29.4525C40.0968 29.6268 40.3038 29.7651 40.5316 29.8595C40.7593 29.9538 41.0035 30.0024 41.25 30.0024C41.4965 30.0024 41.7407 29.9538 41.9684 29.8595C42.1962 29.7651 42.4032 29.6268 42.5775 29.4525C42.7518 29.2782 42.8901 29.0712 42.9845 28.8434C43.0788 28.6157 43.1274 28.3715 43.1274 28.125C43.1274 27.8785 43.0788 27.6343 42.9845 27.4066C42.8901 27.1788 42.7518 26.9718 42.5775 26.7975L31.3275 15.5475C31.1533 15.3729 30.9464 15.2344 30.7186 15.1398C30.4908 15.0453 30.2466 14.9966 30 14.9966C29.7534 14.9966 29.5092 15.0453 29.2814 15.1398C29.0536 15.2344 28.8467 15.3729 28.6725 15.5475L17.4225 26.7975C17.0704 27.1496 16.8726 27.6271 16.8726 28.125C16.8726 28.6229 17.0704 29.1004 17.4225 29.4525C17.7746 29.8046 18.2521 30.0024 18.75 30.0024C19.2479 30.0024 19.7254 29.8046 20.0775 29.4525L28.125 21.4012V43.125C28.125 43.6223 28.3225 44.0992 28.6742 44.4508C29.0258 44.8025 29.5027 45 30 45C30.4973 45 30.9742 44.8025 31.3258 44.4508C31.6775 44.0992 31.875 43.6223 31.875 43.125Z" fill="white"/>
</svg>
